<?xml version="1.0" encoding="UTF-8"?>
<svg id="Layer_1" data-name="Layer 1" xmlns="http://www.w3.org/2000/svg" viewBox="0 0 32 23.78">
  <defs>
    <style>
      .cls-1 {
        fill: #273a92;
        stroke-width: 0px;
      }
    </style>
  </defs>
  <path class="cls-1" d="m13.72,11.14c0-1.43-1.16-2.59-2.59-2.59h-1.71l-1.81-6.17C7.19.97,5.9,0,4.44,0H0v23.78h.94c2.37,0,4.36-1.7,4.8-3.95h9.92v-1.88h-1.94v-6.81h0ZM1.88,1.88h2.56c.63,0,1.19.42,1.37,1.03l1.65,5.64H1.88V1.88h0Zm0,19.87v-5.71c1.23.41,2.06,1.56,2.07,2.85,0,1.33-.87,2.46-2.07,2.86h0Zm3.86-3.8c-.39-1.95-1.91-3.47-3.86-3.85v-3.66h9.25c.39,0,.71.32.71.71v2.11h-3.12v1.88h3.12v2.82h-6.1Zm14.06-11.43c.49,0,.96-.43.94-.94-.02-.51-.41-.94-.94-.94-.49,0-.96.43-.94.94.02.51.41.94.94.94Zm8.46-3.6c.49,0,.96-.43.94-.94-.02-.51-.41-.94-.94-.94-.49,0-.96.43-.94.94.02.51.41.94.94.94Zm-.47,19.74c.49,0,.96-.43.94-.94-.02-.51-.41-.94-.94-.94-.49,0-.96.43-.94.94.02.51.41.94.94.94Zm-10.01-2.97l.39-1.59s.42-1.71.82-3.21c.26-.97.35-2.05.26-3.19-.14-1.85,1.21-3.48,3.05-3.69.44-1.45,1.78-2.44,3.3-2.45.45,0,.9.09,1.31.26.58-.32,1.23-.46,1.89-.41,1.75.12,3.13,1.52,3.21,3.27.04.76-.18,1.5-.61,2.12.09.31.14.63.14.96,0,1.35-.79,2.58-2.02,3.14-.05,1.9-1.63,3.41-3.53,3.37-.11,0-.21,0-.32-.02-1.47-.17-2.86-.06-4.13.33-1.14.35-2.17.66-2.18.66,0,0-1.57.47-1.57.47Zm4.91-9.82c-.87,0-1.57.7-1.56,1.57,0,.04,0,.08,0,.12.1,1.35,0,2.64-.32,3.82-.14.53-.28,1.08-.41,1.57l.59-.18c1.53-.47,3.17-.6,4.9-.4.86.1,1.64-.52,1.74-1.37.02-.18.01-.37-.03-.55l-.24-.98,1-.17c.76-.12,1.31-.78,1.31-1.54,0-.25-.06-.49-.17-.71l-.31-.61.49-.48c.32-.32.49-.74.46-1.19-.05-.79-.67-1.42-1.45-1.48-.4-.03-.8.1-1.1.35l-.53.44-.58-.38c-.25-.17-.55-.26-.86-.26-.85,0-1.55.69-1.56,1.54l-.02,1.09-1.07-.18c-.08-.01-.17-.02-.26-.02Z"/>
</svg>