<?xml version="1.0" encoding="UTF-8"?>
<svg id="Layer_1" data-name="Layer 1" xmlns="http://www.w3.org/2000/svg" viewBox="0 0 24.5 32">
  <defs>
    <style>
      .cls-1 {
        fill: none;
        stroke: #0025d9;
        stroke-miterlimit: 10;
        stroke-width: 1.88px;
      }
    </style>
  </defs>
  <path class="cls-1" d="m.94,4.69V.94h5.69v3.75"/>
  <path class="cls-1" d="m10.38,3.28v1.41H.94v23.56l1.88,2.81h17c2.07,0,3.75-1.68,3.75-3.75V3.28c0-1.29-1.05-2.34-2.34-2.34h-8.5c-1.29,0-2.34,1.05-2.34,2.34h0ZM.94,25.44h5.62m-5.62-3.75h5.62m-5.62-3.75h5.62M.94,14.19h5.62"/>
  <path class="cls-1" d="m19.81,4.69h-5.69v3.75h5.69s0-3.75,0-3.75Zm-1.88,7.5H6.56v15.12h11.37v-15.12h0Zm-8.56,3.75h5.75m-5.75,3.75h5.75m-5.75,3.75h1.88"/>
</svg>