<?xml version="1.0" encoding="UTF-8"?>
<svg id="Layer_1" data-name="Layer 1" xmlns="http://www.w3.org/2000/svg" xmlns:xlink="http://www.w3.org/1999/xlink" viewBox="0 0 32 32">
  <defs>
    <style>
      .cls-1 {
        fill: none;
      }

      .cls-1, .cls-2 {
        stroke-width: 0px;
      }

      .cls-2 {
        fill: #1c44d9;
      }

      .cls-3 {
        clip-path: url(#clippath);
      }
    </style>
    <clipPath id="clippath">
      <rect class="cls-1" width="32" height="32"/>
    </clipPath>
  </defs>
  <g class="cls-3">
    <g>
      <path class="cls-2" d="m15.97,0C9.65,0,4.5,5.14,4.5,11.47c0,3.87,1.95,7.49,5.2,9.6v6.95h1.71c.31,2.28,2.26,3.98,4.56,3.98,2.3,0,4.25-1.7,4.56-3.98h1.71v-6.95c3.24-2.12,5.2-5.73,5.2-9.6,0-6.32-5.14-11.47-11.47-11.47h0Zm4.86,19.74l-.46.27v2.38h-8.79v-2.38l-.46-.27c-2.94-1.72-4.74-4.87-4.74-8.27C6.38,6.18,10.68,1.88,15.97,1.88s9.59,4.3,9.59,9.59c0,3.4-1.8,6.55-4.74,8.27h0Zm-.46,6.4h-8.79v-1.88h8.79v1.88h0Zm-4.4,3.98c-1.29,0-2.37-.9-2.66-2.1h5.31c-.29,1.23-1.39,2.1-2.66,2.1h0Z"/>
      <path class="cls-2" d="m20.54,8.23l1.04-1.04-1.33-1.33-1.04,1.04c-.69-.49-1.47-.82-2.31-.96v-1.47h-1.88v1.47c-.83.14-1.62.47-2.31.96l-1.04-1.04-1.33,1.33,1.04,1.04c-.49.69-.82,1.47-.96,2.31h-1.47v1.88h1.47c.14.85.48,1.63.96,2.31l-1.04,1.05,1.33,1.33,1.04-1.04c.67.48,1.46.81,2.31.96v1.48h1.88v-1.48c.83-.14,1.62-.47,2.31-.96l1.04,1.04,1.33-1.32-1.04-1.05c.48-.67.81-1.46.96-2.31h1.48v-1.88h-1.48c-.14-.83-.47-1.62-.96-2.31h0Zm-4.57,6.97c-2.06,0-3.73-1.67-3.73-3.73,0-2.06,1.67-3.73,3.73-3.73,2.06,0,3.73,1.67,3.73,3.73,0,2.06-1.67,3.73-3.73,3.73h0Z"/>
      <path class="cls-2" d="m15.03,10.53h1.88v1.88h-1.88v-1.88Z"/>
    </g>
  </g>
</svg>