<?xml version="1.0" encoding="UTF-8"?>
<svg version="1.1" xmlns="http://www.w3.org/2000/svg" width="1080" height="1080">
<path d="M0 0 C356.4 0 712.8 0 1080 0 C1080 356.4 1080 712.8 1080 1080 C723.6 1080 367.2 1080 0 1080 C0 723.6 0 367.2 0 0 Z " fill="#FEFEFE" transform="translate(0,0)"/>
<path d="M0 0 C18.35567106 15.72326862 33.17319001 33.81804125 43 56 C43.41306396 56.92329102 43.41306396 56.92329102 43.83447266 57.86523438 C47.03642358 65.12993799 49.58031678 72.49916593 51.75 80.125 C51.94875732 80.8164209 52.14751465 81.5078418 52.35229492 82.22021484 C55.64543593 94.36234897 56.40693235 106.48708099 56.375 119 C56.37478851 119.76768707 56.37457703 120.53537415 56.37435913 121.32632446 C56.33982435 133.92300825 55.33187112 145.80047846 52 158 C51.81808105 158.69996094 51.63616211 159.39992188 51.44873047 160.12109375 C41.96102246 196.00311367 18.7976005 228.30551479 -12 249 C-12.66 249 -13.32 249 -14 249 C-14 280.02 -14 311.04 -14 343 C-21.59 343 -29.18 343 -37 343 C-37.66 346.63 -38.32 350.26 -39 354 C-43.3461089 369.03029327 -53.94774705 381.14604093 -67.3203125 388.93359375 C-82.43620218 397.13072598 -98.15799255 399.43946061 -114.875 395.375 C-131.99125913 390.18222371 -145.23278107 379.49448663 -153.75390625 363.76171875 C-157.08570701 356.92952007 -158.44811945 351.75940274 -160 344 C-167.59 343.67 -175.18 343.34 -183 343 C-182.9779248 340.18911865 -182.95584961 337.3782373 -182.93310547 334.48217773 C-182.86739973 325.18616194 -182.85673633 315.89066661 -182.87302971 306.59445095 C-182.88122126 300.95886603 -182.87098056 295.32458023 -182.81835938 289.68920898 C-182.76823926 284.24860885 -182.76687239 278.80996342 -182.79904556 273.36924934 C-182.80279152 271.29563243 -182.78908647 269.22190692 -182.75750351 267.14852715 C-182.12453459 256.05010598 -182.12453459 256.05010598 -186.17781067 246.23432922 C-188.72957549 244.43494334 -191.13704569 243.21996936 -194 242 C-196.04545593 240.49607849 -196.04545593 240.49607849 -197.65234375 239.11328125 C-198.1952002 238.65671143 -198.73805664 238.2001416 -199.29736328 237.72973633 C-228.66628365 212.35215628 -248.68337042 176.74559641 -252.71484375 137.80078125 C-255.50080067 97.2118076 -247.76204999 56.9386509 -221 25 C-220.27296875 24.07445312 -219.5459375 23.14890625 -218.796875 22.1953125 C-194.24078239 -8.80031489 -156.88120764 -29.4247755 -117.67578125 -34.4609375 C-75.02133509 -39.05460986 -33.24681766 -27.19786835 0 0 Z " fill="#FDFEFE" transform="translate(638,359)"/>
<path d="M0 0 C18.35567106 15.72326862 33.17319001 33.81804125 43 56 C43.41306396 56.92329102 43.41306396 56.92329102 43.83447266 57.86523438 C47.03642358 65.12993799 49.58031678 72.49916593 51.75 80.125 C51.94875732 80.8164209 52.14751465 81.5078418 52.35229492 82.22021484 C55.64543593 94.36234897 56.40693235 106.48708099 56.375 119 C56.37478851 119.76768707 56.37457703 120.53537415 56.37435913 121.32632446 C56.33982435 133.92300825 55.33187112 145.80047846 52 158 C51.81808105 158.69996094 51.63616211 159.39992188 51.44873047 160.12109375 C41.96102246 196.00311367 18.7976005 228.30551479 -12 249 C-12.66 249 -13.32 249 -14 249 C-14 280.02 -14 311.04 -14 343 C-21.59 343 -29.18 343 -37 343 C-37.66 346.63 -38.32 350.26 -39 354 C-43.3461089 369.03029327 -53.94774705 381.14604093 -67.3203125 388.93359375 C-82.43620218 397.13072598 -98.15799255 399.43946061 -114.875 395.375 C-131.99125913 390.18222371 -145.23278107 379.49448663 -153.75390625 363.76171875 C-157.08570701 356.92952007 -158.44811945 351.75940274 -160 344 C-167.59 343.67 -175.18 343.34 -183 343 C-182.9779248 340.18911865 -182.95584961 337.3782373 -182.93310547 334.48217773 C-182.86739973 325.18616194 -182.85673633 315.89066661 -182.87302971 306.59445095 C-182.88122126 300.95886603 -182.87098056 295.32458023 -182.81835938 289.68920898 C-182.76823926 284.24860885 -182.76687239 278.80996342 -182.79904556 273.36924934 C-182.80279152 271.29563243 -182.78908647 269.22190692 -182.75750351 267.14852715 C-182.12453459 256.05010598 -182.12453459 256.05010598 -186.17781067 246.23432922 C-188.72957549 244.43494334 -191.13704569 243.21996936 -194 242 C-196.04545593 240.49607849 -196.04545593 240.49607849 -197.65234375 239.11328125 C-198.1952002 238.65671143 -198.73805664 238.2001416 -199.29736328 237.72973633 C-228.66628365 212.35215628 -248.68337042 176.74559641 -252.71484375 137.80078125 C-255.50080067 97.2118076 -247.76204999 56.9386509 -221 25 C-220.27296875 24.07445312 -219.5459375 23.14890625 -218.796875 22.1953125 C-194.24078239 -8.80031489 -156.88120764 -29.4247755 -117.67578125 -34.4609375 C-75.02133509 -39.05460986 -33.24681766 -27.19786835 0 0 Z M-190 28 C-190.60199219 28.54914063 -191.20398438 29.09828125 -191.82421875 29.6640625 C-213.88285359 50.54006656 -227.20581956 82.45738883 -228.203125 112.63671875 C-228.79506849 150.2232689 -217.0800861 183.66040762 -190.93359375 211.05859375 C-188.00278684 214.04256276 -184.96808087 216.88030205 -181.8125 219.625 C-181.02166016 220.32665283 -181.02166016 220.32665283 -180.21484375 221.04248047 C-177.16665839 223.61483832 -174.38641248 225.35754454 -170.65234375 226.78515625 C-166.25 228.6875 -166.25 228.6875 -159 235 C-158.67 245.56 -158.34 256.12 -158 267 C-118.73 267 -79.46 267 -39 267 C-38.67 256.44 -38.34 245.88 -38 235 C-30.31498653 228.30873827 -30.31498653 228.30873827 -24.13037109 225.94726562 C-20.60805635 224.38107479 -17.91279858 221.99165251 -15.0625 219.4375 C-14.53068115 218.97158447 -13.9988623 218.50566895 -13.45092773 218.02563477 C-11.95298973 216.69973345 -10.47596994 215.35031304 -9 214 C-8.19046875 213.26136719 -7.3809375 212.52273438 -6.546875 211.76171875 C11.22347688 194.76804308 22.28476736 172.72262777 28 149 C28.33644531 147.72898437 28.67289063 146.45796875 29.01953125 145.1484375 C36.13268478 114.29229206 29.51418748 79.96103253 13.27294922 53.02197266 C-6.50888026 21.60020208 -36.4474069 0.67208692 -72.546875 -7.8359375 C-75.70622891 -8.38922537 -78.80259435 -8.74376192 -82 -9 C-82.71365723 -9.05881348 -83.42731445 -9.11762695 -84.16259766 -9.17822266 C-124.94192665 -12.38008006 -160.26178855 -0.01954073 -190 28 Z " fill="#024BAD" transform="translate(638,359)"/>
<path d="M0 0 C8.25 0 16.5 0 25 0 C25.33 6.6 25.66 13.2 26 20 C28.578125 20.70125 31.15625 21.4025 33.8125 22.125 C40.3351086 23.96603874 46.01281265 26.25602295 51.80078125 29.86328125 C54.17963061 31.30611023 54.17963061 31.30611023 58 31 C60.23515016 29.05437706 62.22932551 27.14636238 64.25 25 C65.08144531 24.14148438 65.08144531 24.14148438 65.9296875 23.265625 C67.29564122 21.85256943 68.64905611 20.42741242 70 19 C76.41069287 24.27101414 82.18590512 30.09128152 88 36 C86.00333635 40.98588841 81.8943067 44.00746127 78.01953125 47.5625 C75.80138648 49.71608905 75.80138648 49.71608905 75.98828125 51.8984375 C77.40251998 54.83612259 78.85808476 57.73838071 80.375 60.625 C83.90099263 67.49391006 87 74.15355524 87 82 C93.6 82 100.2 82 107 82 C107 90.58 107 99.16 107 108 C100.4 108 93.8 108 87 108 C86.835 109.485 86.67 110.97 86.5 112.5 C85.0453901 120.72496331 80.89834694 127.71496415 77 135 C76.34 136.32 75.68 137.64 75 139 C79.29 143.29 83.58 147.58 88 152 C85.66312743 156.67374514 82.76639673 159.63772998 79.125 163.3125 C78.49980469 163.97056641 77.87460937 164.62863281 77.23046875 165.30664062 C76.62074219 165.92345703 76.01101563 166.54027344 75.3828125 167.17578125 C74.55354248 168.02523315 74.55354248 168.02523315 73.70751953 168.8918457 C72 170 72 170 69.96337891 169.83300781 C66.75768069 168.472918 64.61051481 165.91882856 62.25 163.4375 C61.74339844 162.91736328 61.23679687 162.39722656 60.71484375 161.86132812 C59.46965595 160.58089916 58.23388498 159.29132446 57 158 C53.16438171 159.48452634 49.46495502 161.17424237 45.75 162.9375 C32.64669927 169 32.64669927 169 25 169 C25 175.6 25 182.2 25 189 C16.75 189 8.5 189 0 189 C0 182.4 0 175.8 0 169 C-2.97 168.67 -5.94 168.34 -9 168 C-12.1875 166.984375 -12.1875 166.984375 -15 165.75 C-16.010625 165.31042969 -17.02125 164.87085938 -18.0625 164.41796875 C-21.54352336 162.73763434 -24.82219499 160.82762712 -28.0625 158.72265625 C-29.98088759 157.78860667 -29.98088759 157.78860667 -31.921875 158.55078125 C-34.68020624 160.47435435 -36.90423095 162.71750018 -39.25 165.125 C-40.14203125 166.03507813 -41.0340625 166.94515625 -41.953125 167.8828125 C-42.62859375 168.58148437 -43.3040625 169.28015625 -44 170 C-47.15204981 168.60652624 -49.26171773 166.97514921 -51.671875 164.5234375 C-52.33574219 163.853125 -52.99960937 163.1828125 -53.68359375 162.4921875 C-54.36550781 161.79351563 -55.04742187 161.09484375 -55.75 160.375 C-56.44738281 159.66859375 -57.14476562 158.9621875 -57.86328125 158.234375 C-59.58012488 156.49401297 -61.29211832 154.74915019 -63 153 C-59.81968878 149.2341894 -56.64858175 145.51561011 -53.125 142.0625 C-52.52945312 141.47597656 -51.93390625 140.88945313 -51.3203125 140.28515625 C-50.66675781 139.64900391 -50.66675781 139.64900391 -50 139 C-50.79664063 137.47632813 -50.79664063 137.47632813 -51.609375 135.921875 C-62 115.77653518 -62 115.77653518 -62 108 C-68.6 108 -75.2 108 -82 108 C-82 99.42 -82 90.84 -82 82 C-75.4 82 -68.8 82 -62 82 C-61.835 80.515 -61.67 79.03 -61.5 77.5 C-60.40121222 71.23284006 -57.81837923 66.1175867 -54.83203125 60.57226562 C-51.91384185 55.54704681 -51.91384185 55.54704681 -51 50 C-52.69413251 47.58528447 -54.76622364 45.67080793 -56.9375 43.6875 C-57.51435547 43.13771484 -58.09121094 42.58792969 -58.68554688 42.02148438 C-60.11061066 40.66708491 -61.55365858 39.33165356 -63 38 C-60.90308431 33.35919113 -57.67171494 30.26672047 -54.125 26.6875 C-53.49980469 26.02943359 -52.87460937 25.37136719 -52.23046875 24.69335938 C-51.62074219 24.07654297 -51.01101563 23.45972656 -50.3828125 22.82421875 C-49.82996582 22.25791748 -49.27711914 21.69161621 -48.70751953 21.1081543 C-47 20 -47 20 -44.96337891 20.16699219 C-41.75768069 21.527082 -39.61051481 24.08117144 -37.25 26.5625 C-36.74339844 27.08263672 -36.23679687 27.60277344 -35.71484375 28.13867188 C-34.46965595 29.41910084 -33.23388498 30.70867554 -32 32 C-27.97697829 30.49136686 -24.28857101 28.58278156 -20.5 26.5625 C-13.84151902 23.10840184 -7.4027619 21.39829947 0 20 C0 13.4 0 6.8 0 0 Z " fill="#024BAD" transform="translate(527,384)"/>
<path d="M0 0 C0.66515625 0.25523437 1.3303125 0.51046875 2.015625 0.7734375 C13.60012178 5.7447373 23.5777081 17.18706397 28.22265625 28.76953125 C33.07585843 42.69505106 31.73692185 56.02845308 25.9375 69.4609375 C19.21873928 82.75848476 7.93702712 91.42649742 -5.984375 96.08203125 C-18.80597284 99.42946251 -32.36905958 97.65540711 -43.92578125 91.421875 C-57.59583444 83.20874426 -65.38806065 71.96116298 -69.34375 56.4453125 C-71.81594835 43.46627117 -69.16500556 30.1297605 -62 19 C-47.47802509 0.28525604 -22.9932294 -10.24892008 0 0 Z " fill="#FCFDFE" transform="translate(559,432)"/>
<path d="M0 0 C39.27 0 78.54 0 119 0 C119 8.25 119 16.5 119 25 C79.73 25 40.46 25 0 25 C0 16.75 0 8.5 0 0 Z " fill="#FEFEFE" transform="translate(480,652)"/>
<path d="M0 0 C23.43 0 46.86 0 71 0 C69.5006054 8.99636758 65.36932861 15.68308204 58.2890625 21.46484375 C48.72757574 27.87724016 39.04723378 30.58274977 27.703125 28.3515625 C15.07742617 24.88394099 7.56099908 17.90573175 1.125 6.75 C0 4 0 4 0 0 Z " fill="#F9FBFD" transform="translate(504,702)"/>
<path d="M0 0 C8.25 0 16.5 0 25 0 C25 8.25 25 16.5 25 25 C16.75 25 8.5 25 0 25 C0 16.75 0 8.5 0 0 Z " fill="#024BAD" transform="translate(527,466)"/>
</svg>
