<?xml version="1.0" encoding="UTF-8"?>
<svg id="Layer_1" data-name="Layer 1" xmlns="http://www.w3.org/2000/svg" xmlns:xlink="http://www.w3.org/1999/xlink" viewBox="0 0 32 32">
  <defs>
    <style>
      .cls-1 {
        fill: #001ad9;
      }

      .cls-1, .cls-2 {
        stroke-width: 0px;
      }

      .cls-2 {
        fill: none;
      }

      .cls-3 {
        clip-path: url(#clippath);
      }
    </style>
    <clipPath id="clippath">
      <rect class="cls-2" width="32" height="32"/>
    </clipPath>
  </defs>
  <g class="cls-3">
    <g>
      <path class="cls-1" d="m16,0C7.19,0,0,7.19,0,16s7.19,16,16,16,16-7.19,16-16S24.81,0,16,0Zm0,30.12c-7.79,0-14.12-6.34-14.12-14.12S8.21,1.88,16,1.88s14.12,6.34,14.12,14.12-6.34,14.12-14.12,14.12Z"/>
      <path class="cls-1" d="m16,3.81c-6.72,0-12.19,5.47-12.19,12.19s5.47,12.19,12.19,12.19,12.19-5.47,12.19-12.19S22.72,3.81,16,3.81h0Zm2.81,2.26c1.64.47,3.14,1.34,4.37,2.53l-2.96,1.71c-.45.26-1.02.11-1.28-.34-.08-.14-.13-.31-.13-.47v-3.43h0Zm-5.62,0v3.43c0,.52-.42.94-.94.94-.17,0-.33-.04-.47-.13l-2.96-1.71c1.22-1.19,2.72-2.06,4.37-2.53Zm-7.5,9.92c0-.87.11-1.72.31-2.52l2.97,1.71c.45.26.6.83.34,1.28-.08.14-.2.26-.34.34l-2.97,1.71c-.21-.83-.31-1.67-.31-2.52h0Zm7.5,9.92c-1.64-.47-3.15-1.34-4.37-2.53l2.96-1.71c.45-.26,1.02-.11,1.28.34.08.14.13.3.13.47v3.43h0Zm5.62,0v-3.43c0-.52.42-.94.94-.94.17,0,.33.04.47.13l2.96,1.71c-1.22,1.19-2.73,2.06-4.37,2.53Zm5.61-3.98l-3.27-1.89c-1.88-1.08-4.22.27-4.22,2.44v3.77c-.62.06-1.25.06-1.88,0v-3.77c0-2.16-2.34-3.52-4.22-2.44l-3.27,1.89c-.36-.51-.68-1.05-.94-1.62l3.27-1.89c1.88-1.08,1.88-3.79,0-4.87l-3.27-1.89c.26-.57.58-1.11.94-1.62l3.27,1.89c1.88,1.08,4.22-.27,4.22-2.44v-3.78c.62-.06,1.25-.06,1.87,0v3.77c0,2.16,2.34,3.52,4.22,2.43l3.26-1.89c.36.51.67,1.05.94,1.62l-3.27,1.89c-1.88,1.08-1.88,3.79,0,4.87l3.27,1.89c-.26.57-.58,1.11-.94,1.62h0Zm-1.39-5.13c-.45-.26-.6-.83-.34-1.28.08-.14.2-.26.34-.34l2.97-1.71c.42,1.66.42,3.39,0,5.05l-2.97-1.71h0Z"/>
      <path class="cls-1" d="m16,13.19c-1.55,0-2.81,1.26-2.81,2.81,0,1.55,1.26,2.81,2.81,2.81,1.55,0,2.81-1.26,2.81-2.81,0-1.55-1.26-2.81-2.81-2.81h0Zm0,3.75c-.52-.03-.91-.47-.88-.99.03-.48.41-.86.88-.88.52.03.91.48.88,1-.03.47-.41.85-.88.88h0Z"/>
    </g>
  </g>
</svg>